<?xml version="1.0" standalone="no"?>
<!DOCTYPE svg PUBLIC "-//W3C//DTD SVG 20010904//EN"
 "http://www.w3.org/TR/2001/REC-SVG-20010904/DTD/svg10.dtd">
<svg version="1.0" xmlns="http://www.w3.org/2000/svg"
 width="40.000000pt" height="40.000000pt" viewBox="0 0 40.000000 40.000000"
 preserveAspectRatio="xMidYMid meet">

<g transform="translate(0.000000,40.000000) scale(0.100000,-0.100000)"
fill="#000000" stroke="none">
<path d="M122 298 c-7 -7 -12 -42 -12 -88 0 -68 -2 -76 -22 -85 -27 -12 -30
-43 -6 -59 13 -8 23 -8 38 2 16 10 24 10 40 0 15 -10 25 -10 38 -2 24 16 21
47 -5 59 -21 9 -23 17 -23 85 0 88 -17 119 -48 88z"/>
</g>
</svg>
